[center][img]http://img151.imageshack.us/img151/4566/glui.jpg[/img]


Genre : Horror

Plot : A group of friends fight for their lives against the lethal and ravenous creatures lurking beneath the Earth's surface. The group finds themselves at the mercy of creatures genetically engineered by the military to be expendable in battle. Though they fought countless battles in Iraq, these friends never knew real fear until they went underground.


Format : AVI 
Format/Info : Audio Video Interleave 
File size : 700 MiB 
Duration : 1h 23mn 
Overall bit rate : 1 177 Kbps 
Writing library : MPlayer 

Video 
ID : 0 
Format : MPEG-4 Visual 
Format profile : Advanced Simple@L5 
Format settings, BVOP : 2 
Format settings, QPel : No 
Format settings, GMC : No warppoints 
Format settings, Matrix : Default (H.263) 
Codec ID : XVID 
Codec ID/Hint : XviD 
Duration : 1h 23mn 
Bit rate : 916 Kbps 
Width : 640 pixels 
Height : 352 pixels 
Display aspect ratio : 16:9 
Frame rate : 25.000 fps 
Color space : YUV 
Chroma subsampling : 4:2:0 
Bit depth : 8 bits 
Scan type : Progressive 
Compression mode : Lossy 
Bits/(Pixel*Frame) : 0.163 
Stream size : 544 MiB (78%) 
Writing library : XviD 63 

Audio 
ID : 1 
Format : MPEG Audio 
Format version : Version 1 
Format profile : Layer 3 
Mode : Joint stereo 
Codec ID : 55 
Codec ID/Hint : MP3 
Duration : 1h 23mn 
Bit rate mode : Constant 
Bit rate : 256 Kbps 
Channel(s) : 2 channels 
Sampling rate : 44.1 KHz 
Compression mode : Lossy 
Delay relative to video : 40ms 
Stream size : 152 MiB (22%) 
Alignment : Split accross interleaves 
Interleave, duration : 500 ms (12.50 video frames) 
Interleave, preload duration : 500 ms
 
http://www.imdb.com/title/tt1811371/

[img]http://img155.imageshack.us/img155/4181/vlcsnap2011120711h34m52.png[/img]
[img]http://img210.imageshack.us/img210/7467/vlcsnap2011120711h33m51.png[/img]
[img]http://img404.imageshack.us/img404/6984/vlcsnap2011120711h31m07.png[/img]
[img]http://img337.imageshack.us/img337/753/vlcsnap2011120711h30m45.png[/img]
[/center]